Coordinates
version=1
nRows=28
nColumns=23
inDegrees=yes

Units are S.I. units (second, meters, Newtons, ...)
If the header above contains a line with 'inDegrees', this indicates whether rotational values are in degrees (yes) or radians (no).

endheader
time	pelvis_tilt	pelvis_list	pelvis_rotation	pelvis_tx	pelvis_ty	pelvis_tz	hip_flexion_r	hip_adduction_r	hip_rotation_r	knee_angle_r	knee_angle_r_beta	ankle_angle_r	subtalar_angle_r	mtp_angle_r	hip_flexion_l	hip_adduction_l	hip_rotation_l	knee_angle_l	knee_angle_l_beta	ankle_angle_l	subtalar_angle_l	mtp_angle_l
      7.50000000	     -8.73140938	      3.08867977	      2.09581453	      2.07193978	      1.01456019	      1.02486110	     45.21010386	      3.11248649	      6.06963114	     77.93132238	      1.36015817	     10.55756681	    -26.64147172	      0.00000000	     -3.99377085	      4.80778239	      3.39697138	     19.79041016	      0.34540782	      4.69757233	      3.73266642	      0.00000000
      7.50666667	     -8.77773047	      2.61934606	      1.80294789	      2.07343531	      1.01811650	      1.02526000	     45.17457319	      3.43818282	      5.66977818	     74.75081933	      1.30464792	     11.13175030	    -26.85999875	      0.00000000	     -5.12950624	      4.29077213	      2.94404810	     18.93224322	      0.33042998	      2.11181939	      3.21962461	      0.00000000
      7.51333333	     -8.92383737	      2.30559642	      1.47399234	      2.07479657	      1.02126908	      1.02572301	     45.17830761	      3.65857816	      5.41205141	     71.52486656	      1.24834442	     11.70878511	    -26.95917300	      0.00000000	     -5.99514395	      3.94509548	      2.35355217	     18.34610294	      0.32019990	     -0.42268560	      2.76929203	      0.00000000
      7.52000000	     -9.04738080	      2.07892992	      1.16232887	      2.07616737	      1.02422548	      1.02615954	     45.05833860	      3.77833011	      5.18744766	     68.22971702	      1.19083321	     12.30241879	    -26.85309805	      0.00000000	     -6.74348803	      3.68675597	      1.68866666	     17.99261849	      0.31403043	     -2.92484158	      2.34942580	      0.00000000
      7.52666667	     -9.66283223	      2.22692473	      0.88911128	      2.07715029	      1.02601771	      1.02659517	     45.49293468	      3.56202345	      5.19907579	     65.07778677	      1.13582165	     12.95258349	    -26.44458177	      0.00000000	     -6.64450309	      3.80439656	      0.86388029	     18.21907435	      0.31798283	     -5.21283830	      2.25515455	      0.00000000
      7.53333333	     -9.23039077	      1.87067253	      0.59500138	      2.07882266	      1.02947091	      1.02702758	     44.48032503	      3.76943800	      4.87362765	     61.50537807	      1.07347135	     13.45813872	    -25.85568514	      0.00000000	     -7.82290464	      3.39813006	      0.17779434	     18.10375241	      0.31597009	     -7.67238528	      1.61067098	      0.00000000
      7.54000000	     -9.65152355	      2.08168873	      0.28263986	      2.07982847	      1.03102089	      1.02759385	     44.51549180	      3.56294934	      5.00198765	     58.25734600	      1.01678250	     13.98563414	    -24.92876835	      0.00000000	     -7.67343848	      3.55938306	     -0.75357227	     18.74548457	      0.32717043	     -9.84813802	      1.25999271	      0.00000000
      7.54666667	     -9.22674024	      1.86855181	      0.11729927	      2.08135517	      1.03370385	      1.02787071	     43.40063517	      3.52305184	      4.62511983	     54.78304774	      0.95614456	     14.73868732	    -23.14669211	      0.00000000	     -8.42055917	      3.24309069	     -1.54187288	     19.39773363	      0.33855432	    -11.91042377	      0.83948493	      0.00000000
      7.55333333	     -9.18177427	      1.93373614	     -0.06458819	      2.08256267	      1.03537058	      1.02830768	     42.71915301	      3.31872846	      4.50494230	     51.47634478	      0.89843170	     15.43425326	    -21.06329952	      0.00000000	     -8.53363138	      3.20087853	     -2.34776203	     20.45564148	      0.35701829	    -13.80941876	      0.45556364	      0.00000000
      7.56000000	     -9.02229512	      1.96263463	     -0.25535248	      2.08370199	      1.03671589	      1.02875749	     41.87684225	      3.14198841	      4.32974617	     48.26091635	      0.84231189	     16.18926609	    -18.50516241	      0.00000000	     -8.61770177	      3.10494853	     -3.14891149	     21.79979251	      0.38047816	    -15.49552120	     -0.04443576	      0.00000000
      7.56666667	     -8.83399762	      1.98179458	     -0.41087039	      2.08479042	      1.03767033	      1.02915573	     40.96381621	      2.95191590	      4.09622575	     45.14691369	      0.78796229	     16.96499112	    -15.52346587	      0.00000000	     -8.59796896	      2.97943225	     -3.86926001	     23.40103693	      0.40842514	    -16.94798744	     -0.60385812	      0.00000000
      7.57333333	     -8.55035473	      1.94595431	     -0.57086596	      2.08578862	      1.03829890	      1.02958963	     39.91168132	      2.83689924	      3.85025635	     42.14495849	      0.73556829	     17.74714900	    -12.32981264	      0.00000000	     -8.57046577	      2.80487480	     -4.44541334	     25.21743778	      0.44012732	    -18.16292173	     -1.33888883	      0.00000000
      7.58000000	     -8.32071496	      1.89112046	     -0.71907500	      2.08661819	      1.03832851	      1.03000913	     38.91947329	      2.75556476	      3.59651405	     39.32877236	      0.68641657	     18.47134154	     -9.03987527	      0.00000000	     -8.33992008	      2.61476742	     -4.87506710	     27.32210415	      0.47686068	    -19.04172865	     -2.15336388	      0.00000000
      7.58666667	     -7.97147222	      1.76924015	     -0.88643113	      2.08737279	      1.03804140	      1.03040553	     37.78499462	      2.75863584	      3.31783699	     36.68583794	      0.64028866	     19.13486489	     -5.71027722	      0.00000000	     -8.17423271	      2.40985987	     -5.06874586	     29.55211809	      0.51578176	    -19.65200235	     -3.16773242	      0.00000000
      7.59333333	     -7.67734415	      1.62212052	     -1.05683273	      2.08793113	      1.03718165	      1.03075858	     36.73242812	      2.81959512	      3.07067638	     34.28060905	      0.59830950	     19.61668879	     -2.65385321	      0.00000000	     -7.82032431	      2.22095220	     -5.06782247	     32.02026838	      0.55885911	    -19.90745470	     -4.26195818	      0.00000000
      7.60000000	     -7.36750471	      1.42593361	     -1.25119143	      2.08832908	      1.03586042	      1.03107524	     35.69301699	      2.96837649	      2.86615499	     32.13980861	      0.56094548	     19.87353764	      0.03961214	      0.00000000	     -7.39591564	      2.04678875	     -4.87834748	     34.64746566	      0.60471235	    -19.86485366	     -5.45223300	      0.00000000
      7.60666667	     -7.24938190	      1.28752010	     -1.61541753	      2.08829918	      1.03370689	      1.03159072	     34.94480997	      3.29370590	      3.19897451	     30.33620479	      0.52946666	     19.74002497	      1.70356987	      0.00000000	     -6.63923614	      2.00425280	     -4.67969593	     37.48467929	      0.65423107	    -19.55689554	     -6.74783156	      0.00000000
      7.61333333	     -7.05174894	      1.00308288	     -1.83533301	      2.08837259	      1.03134947	      1.03175354	     34.13424028	      3.58635894	      3.07508944	     28.84881434	      0.50350680	     19.35559535	      3.24420038	      0.00000000	     -5.89358703	      1.84530896	     -4.26583448	     40.44671749	      0.70592839	    -19.01719392	     -7.94762643	      0.00000000
      7.62000000	     -6.74883273	      0.68869591	     -2.14629564	      2.08831338	      1.02865399	      1.03192441	     33.32775118	      3.93646744	      2.90122979	     27.82639253	      0.48566217	     18.66801600	      4.35554952	      0.00000000	     -5.20577596	      1.72672425	     -3.84645709	     43.46758677	      0.75865251	    -18.35762266	     -9.09083804	      0.00000000
      7.62666667	     -6.15877641	      0.10006621	     -2.26561415	      2.08847618	      1.02614250	      1.03171704	     32.20536277	      4.34936292	      2.12335400	     27.10237826	      0.47302574	     17.58945910	      5.23852623	      0.00000000	     -4.78044677	      1.29168057	     -3.36800025	     46.55322200	      0.81250700	    -17.63079878	    -10.05162923	      0.00000000
      7.63333333	     -5.84861147	     -0.36758980	     -2.58452209	      2.08823154	      1.02272719	      1.03180978	     31.59207870	      4.83080349	      1.73468012	     26.99628749	      0.47117410	     16.18493835	      5.26533832	      0.00000000	     -3.94880404	      1.00455677	     -3.07127072	     49.77166140	      0.86867937	    -16.92894374	    -11.10024676	      0.00000000
      7.64000000	     -5.38608296	     -0.87417111	     -2.96604159	      2.08789408	      1.01911235	      1.03195196	     30.95357327	      5.33981626	      1.25635982	     27.43405725	      0.47881463	     14.61480358	      4.90977867	      0.00000000	     -3.24200375	      0.65107599	     -2.94686124	     53.00604098	      0.92512994	    -16.23702182	    -12.09502643	      0.00000000
      7.64666667	     -5.05164865	     -1.53733742	     -3.25154711	      2.08748795	      1.01508069	      1.03200892	     30.48999021	      5.97702155	      0.72827598	     28.20671521	      0.49230005	     12.92906443	      3.97921276	      0.00000000	     -2.29851660	      0.07004228	     -2.81973223	     56.37292065	      0.98389307	    -15.59313073	    -12.89699221	      0.00000000
      7.65333333	     -5.03847228	     -1.95256430	     -3.86348883	      2.08637836	      1.01013365	      1.03271399	     30.55232799	      6.76560625	      1.30213390	     29.48896941	      0.51467961	     11.23231725	      1.55915665	      0.00000000	     -0.89670859	     -0.36296248	     -3.13748946	     59.83327309	      1.04428762	    -14.98054807	    -13.39812959	      0.00000000
      7.66000000	     -4.83268208	     -2.47581763	     -4.35679915	      2.08536173	      1.00524465	      1.03321545	     30.49389119	      7.46382841	      1.30283128	     31.18899829	      0.54435071	     10.20306360	      0.07389704	      0.00000000	      0.31417202	     -0.92852281	     -3.35055822	     63.23668657	      1.10368839	    -14.50677975	    -14.11420064	      0.00000000
      7.66666667	     -4.68780895	     -2.97794040	     -4.91370598	      2.08406924	      1.00008994	      1.03392021	     30.56574258	      8.23386105	      1.53383979	     33.18163537	      0.57912879	      9.75478499	     -1.38923481	      0.00000000	      1.64838737	     -1.55380158	     -3.66810745	     66.63736585	      1.16304144	    -14.11353153	    -14.82331097	      0.00000000
      7.67333333	     -4.55103154	     -3.49874969	     -5.47536292	      2.08253848	      0.99484381	      1.03467764	     30.66050562	      9.06748166	      1.87112110	     35.32353883	      0.61651206	      9.83429856	     -2.68061533	      0.00000000	      3.04322751	     -2.27333515	     -4.01626012	     70.00826018	      1.22187464	    -13.72517862	    -15.45000810	      0.00000000
      7.68000000	     -4.50081388	     -3.95636997	     -6.10551273	      2.08070409	      0.98947518	      1.03561435	     30.84841183	      9.95537188	      2.46464955	     37.56582735	      0.65564737	     10.47360165	     -3.87357795	      0.00000000	      4.57803125	     -2.99220288	     -4.40445093	     73.31209988	      1.27953752	    -13.41976729	    -16.18080251	      0.00000000
